<svg width="614" height="585" viewBox="0 0 614 585" fill="none" xmlns="http://www.w3.org/2000/svg">
<path fill-rule="evenodd" clip-rule="evenodd" d="M243.342 489.637C315.071 550.805 422.806 542.243 483.973 470.513C545.141 398.783 536.579 291.049 464.849 229.881C393.12 168.714 285.385 177.276 224.218 249.005C163.05 320.735 171.612 428.469 243.342 489.637ZM268.416 460.231C323.905 507.549 407.247 500.926 454.565 445.437C501.884 389.948 495.26 306.606 439.771 259.288C384.283 211.969 300.941 218.593 253.622 274.082C206.304 329.571 212.927 412.912 268.416 460.231Z" fill="#E8E8E8" fill-opacity="0.8"/>
<path d="M206.602 468.56C207.062 467.782 207.723 467.144 208.517 466.712L296.877 418.652C300.755 416.542 305.264 420.127 304.084 424.381L276.333 524.392C276.063 525.363 275.507 526.231 274.736 526.88L139.3 640.931L67.1168 717.125C62.9514 721.521 56.0171 716.111 59.2687 711.002L115.309 622.938L206.602 468.56Z" fill="#E8E8E8" fill-opacity="0.8"/>
<path fill-rule="evenodd" clip-rule="evenodd" d="M283.719 456.349C283.854 456.466 283.99 456.582 284.126 456.698C284.262 456.814 284.398 456.929 284.534 457.044L283.719 456.349ZM299.933 467.943C344.857 494.258 403.532 485.427 438.493 444.43L438.494 444.429L419.629 428.342L419.628 428.343C393.587 458.881 350.538 466.348 316.353 448.688L299.933 467.943Z" fill="#E8E8E8" fill-opacity="0.8"/>
<rect x="49.186" y="280.35" width="42.8589" height="135.72" rx="5" transform="rotate(-74.3374 49.186 280.35)" fill="#E8E8E8" fill-opacity="0.8"/>
<rect x="121.158" y="138.464" width="42.8589" height="135.72" rx="5" transform="rotate(-46.9745 121.158 138.464)" fill="#E8E8E8" fill-opacity="0.8"/>
<rect x="253.109" y="58.1614" width="42.8589" height="135.72" rx="5" transform="rotate(-14.8819 253.109 58.1614)" fill="#E8E8E8" fill-opacity="0.8"/>
</svg>
