<svg width="36" height="37" viewBox="0 0 36 37" fill="none" xmlns="http://www.w3.org/2000/svg">
<path fill-rule="evenodd" clip-rule="evenodd" d="M19.7677 20.8445C22.8213 23.4485 27.4077 23.084 30.0117 20.0303C32.6156 16.9767 32.2511 12.3903 29.1975 9.78634C26.1439 7.18236 21.5575 7.54686 18.9535 10.6005C16.3495 13.6541 16.714 18.2405 19.7677 20.8445ZM20.8351 19.5926C23.1974 21.607 26.7453 21.3251 28.7598 18.9628C30.7742 16.6006 30.4922 13.0526 28.1299 11.0382C25.7677 9.02381 22.2198 9.30578 20.2053 11.668C18.1909 14.0302 18.4729 17.5782 20.8351 19.5926Z" fill="#ADADAD"/>
<path d="M17.9753 20.3333C18.1443 20.0475 18.3875 19.8129 18.6792 19.6542V19.6542C20.1048 18.8788 21.7625 20.1966 21.3285 21.7604L21.3092 21.8303C21.2084 22.1933 21.0003 22.5174 20.7121 22.7601L15.3385 27.2853V27.2853C14.8053 27.8481 13.901 27.1733 14.3172 26.5193V26.5193L17.9753 20.3333Z" fill="#ADADAD"/>
<path fill-rule="evenodd" clip-rule="evenodd" d="M21.49 19.4303C21.4946 19.4343 21.4992 19.4383 21.5039 19.4422C21.5086 19.4462 21.5132 19.4502 21.5179 19.4541L21.49 19.4303ZM22.1768 19.921C24.0893 21.0412 26.5872 20.6653 28.0755 18.92L28.0755 18.9199L27.2724 18.2351L27.2724 18.2351C26.1638 19.5352 24.3311 19.853 22.8759 19.1012L22.1768 19.921Z" fill="#ADADAD"/>
<rect x="11.5022" y="11.9348" width="1.82456" height="5.77777" rx="0.912279" transform="rotate(-74.3374 11.5022 11.9348)" fill="#ADADAD"/>
<rect x="14.5662" y="5.89459" width="1.82456" height="5.77777" rx="0.912279" transform="rotate(-46.9745 14.5662 5.89459)" fill="#ADADAD"/>
<rect x="20.1835" y="2.47601" width="1.82456" height="5.77777" rx="0.912279" transform="rotate(-14.8819 20.1835 2.47601)" fill="#ADADAD"/>
</svg>
