<svg width="184" height="75" viewBox="0 0 184 75" fill="none" xmlns="http://www.w3.org/2000/svg">
<path d="M63.2075 7.19531C63.2075 7.48177 63.188 7.82682 63.1489 8.23047C63.1229 8.63411 63.0708 9.04427 62.9927 9.46094C62.9276 9.8776 62.8299 10.2682 62.6997 10.6328C62.5695 10.9974 62.4067 11.2839 62.2114 11.4922C62.1333 11.5833 61.8794 11.6745 61.4497 11.7656C61.033 11.8438 60.5252 11.9284 59.9263 12.0195C59.3403 12.0977 58.7088 12.1758 58.0317 12.2539C57.3547 12.332 56.7101 12.4036 56.0981 12.4688C55.4992 12.5208 54.9784 12.5664 54.5356 12.6055C54.0929 12.6445 53.813 12.6641 53.6958 12.6641L53.5396 16.7266C53.1359 16.7526 52.7388 16.7591 52.3481 16.7461C51.9575 16.7201 51.5604 16.707 51.1567 16.707C50.8963 16.707 50.6359 16.7135 50.3755 16.7266C50.1151 16.7396 49.8547 16.7591 49.5942 16.7852C49.5942 15.5612 49.5942 14.3503 49.5942 13.1523C49.5942 11.9544 49.5682 10.7435 49.5161 9.51953C49.4771 8.41276 49.438 7.3125 49.3989 6.21875C49.3729 5.125 49.3468 4.02474 49.3208 2.91797C50.6619 2.82682 52.0096 2.71615 53.3638 2.58594C54.731 2.44271 56.0916 2.37109 57.4458 2.37109C57.6802 2.37109 58.0513 2.39714 58.5591 2.44922C59.0669 2.48828 59.6007 2.5599 60.1606 2.66406C60.7205 2.75521 61.2349 2.8724 61.7036 3.01562C62.1854 3.15885 62.5044 3.32161 62.6606 3.50391C62.7648 3.62109 62.8494 3.84896 62.9146 4.1875C62.9927 4.52604 63.0513 4.89062 63.0903 5.28125C63.1294 5.65885 63.1554 6.02995 63.1685 6.39453C63.1945 6.75911 63.2075 7.02604 63.2075 7.19531ZM57.7388 7.05859C57.7388 6.94141 57.7323 6.79167 57.7192 6.60938C57.7062 6.42708 57.6802 6.2513 57.6411 6.08203C57.6151 5.89974 57.5695 5.73698 57.5044 5.59375C57.4393 5.4375 57.3547 5.32682 57.2505 5.26172C57.1854 5.22266 57.0812 5.1901 56.938 5.16406C56.7948 5.13802 56.645 5.11849 56.4888 5.10547C56.3325 5.09245 56.1828 5.08594 56.0396 5.08594C55.8963 5.07292 55.7922 5.06641 55.7271 5.06641C55.2453 5.06641 54.7635 5.09245 54.2817 5.14453C53.8 5.19661 53.3117 5.26172 52.8169 5.33984C52.856 5.73047 52.8755 6.11458 52.8755 6.49219C52.8885 6.86979 52.895 7.2474 52.895 7.625C52.895 8.23698 52.9146 8.85547 52.9536 9.48047C53.1229 9.48047 53.4159 9.47396 53.8325 9.46094C54.2492 9.4349 54.6854 9.40234 55.1411 9.36328C55.5968 9.3112 56.0265 9.24609 56.4302 9.16797C56.8338 9.07682 57.1073 8.95964 57.2505 8.81641C57.4849 8.59505 57.6216 8.32812 57.6606 8.01562C57.7127 7.6901 57.7388 7.37109 57.7388 7.05859ZM78.5786 9.75391C76.8729 9.84505 75.1737 9.92318 73.481 9.98828C71.7882 10.0404 70.089 10.099 68.3833 10.1641C68.3703 10.2161 68.3638 10.2682 68.3638 10.3203C68.3638 10.3724 68.3638 10.4245 68.3638 10.4766C68.3638 10.9193 68.4614 11.2578 68.6567 11.4922C68.8651 11.7266 69.119 11.8958 69.4185 12C69.7179 12.0911 70.05 12.1432 70.4146 12.1562C70.7791 12.1693 71.1177 12.1758 71.4302 12.1758C72.3026 12.1758 73.175 12.1497 74.0474 12.0977C74.9198 12.0326 75.7987 11.9674 76.6841 11.9023L76.8403 15.0078C75.981 15.0469 75.1216 15.0794 74.2622 15.1055C73.4159 15.1315 72.563 15.1445 71.7036 15.1445C71.5213 15.1445 71.1828 15.1445 70.688 15.1445C70.2062 15.1315 69.6854 15.112 69.1255 15.0859C68.5786 15.0469 68.0643 15.0013 67.5825 14.9492C67.1007 14.8971 66.7817 14.8255 66.6255 14.7344C66.2218 14.5 65.9028 14.2005 65.6685 13.8359C65.4471 13.4714 65.2713 13.0742 65.1411 12.6445C65.0239 12.2148 64.9393 11.7786 64.8872 11.3359C64.8481 10.8802 64.8221 10.444 64.8091 10.0273C64.7961 9.96224 64.7896 9.89714 64.7896 9.83203C64.8026 9.75391 64.8091 9.68229 64.8091 9.61719C64.8091 8.92708 64.8807 8.28906 65.0239 7.70312C65.1802 7.10417 65.4601 6.52474 65.8638 5.96484C66.1372 5.57422 66.5409 5.2487 67.0747 4.98828C67.6086 4.72786 68.188 4.52604 68.813 4.38281C69.438 4.22656 70.063 4.1224 70.688 4.07031C71.313 4.00521 71.8534 3.97266 72.3091 3.97266C72.7127 3.97266 73.2075 4.01172 73.7935 4.08984C74.3794 4.15495 74.9588 4.27214 75.5317 4.44141C76.1177 4.61068 76.645 4.83203 77.1138 5.10547C77.5825 5.36589 77.9015 5.69141 78.0708 6.08203C78.0968 6.16016 78.1229 6.29688 78.1489 6.49219C78.188 6.67448 78.2271 6.88932 78.2661 7.13672C78.3052 7.37109 78.3377 7.625 78.3638 7.89844C78.4028 8.17188 78.4354 8.43229 78.4614 8.67969C78.4875 8.92708 78.507 9.14844 78.52 9.34375C78.5461 9.53906 78.5656 9.67578 78.5786 9.75391ZM75.9224 8.32812C75.8442 7.75521 75.6945 7.30599 75.4731 6.98047C75.2648 6.64193 74.9979 6.39453 74.6724 6.23828C74.3599 6.06901 73.9953 5.96484 73.5786 5.92578C73.175 5.8737 72.7388 5.84766 72.27 5.84766C72.1138 5.84766 71.9185 5.85417 71.6841 5.86719C71.4497 5.86719 71.2153 5.88672 70.981 5.92578C70.7466 5.95182 70.5252 5.9974 70.3169 6.0625C70.1086 6.1276 69.9458 6.21875 69.8286 6.33594C69.7375 6.41406 69.6593 6.52474 69.5942 6.66797C69.5422 6.79818 69.4966 6.94141 69.4575 7.09766C69.4185 7.25391 69.3859 7.41016 69.3599 7.56641C69.3468 7.70964 69.3403 7.83333 69.3403 7.9375C69.3403 8.14583 69.3599 8.34766 69.3989 8.54297L75.9224 8.32812ZM91.3911 8.75781V9.20703L87.6216 9.38281C87.6606 9.21354 87.6802 9.01823 87.6802 8.79688C87.6802 8.47135 87.6346 8.26302 87.5435 8.17188C87.4523 8.06771 87.2505 8.01562 86.938 8.01562C86.4953 8.01562 86.007 8.09375 85.4731 8.25C84.9393 8.40625 84.4705 8.55599 84.0669 8.69922C84.0018 9.27214 83.9497 9.84505 83.9106 10.418C83.8716 10.9909 83.8521 11.5638 83.8521 12.1367C83.8521 12.7747 83.8521 13.4128 83.8521 14.0508C83.8651 14.6758 83.8781 15.3073 83.8911 15.9453L80.5317 16.1602C80.4666 15.3268 80.4015 14.5 80.3364 13.6797C80.2713 12.8464 80.2127 12.013 80.1606 11.1797C80.0955 10.0729 80.0109 8.97266 79.9067 7.87891C79.8026 6.77214 79.6984 5.65885 79.5942 4.53906C80.3364 4.59115 81.0721 4.66927 81.8013 4.77344C82.5435 4.86458 83.2856 4.98177 84.0278 5.125L83.9302 6.76562C84.3208 6.45312 84.6919 6.1862 85.0435 5.96484C85.408 5.73047 85.7726 5.53516 86.1372 5.37891C86.5148 5.22266 86.9119 5.11198 87.3286 5.04688C87.7453 4.96875 88.2075 4.92969 88.7153 4.92969C89.0539 4.92969 89.4054 4.96875 89.77 5.04688C90.1346 5.11198 90.4471 5.27474 90.7075 5.53516C90.8377 5.67839 90.9484 5.89323 91.0396 6.17969C91.1307 6.46615 91.2023 6.77214 91.2544 7.09766C91.3065 7.41016 91.339 7.72266 91.3521 8.03516C91.3781 8.33464 91.3911 8.57552 91.3911 8.75781ZM105.883 6.14062C105.883 6.6875 105.883 7.22786 105.883 7.76172C105.883 8.29557 105.87 8.83594 105.844 9.38281C105.818 10.5807 105.766 11.7721 105.688 12.957C105.61 14.1289 105.525 15.3073 105.434 16.4922C104.249 16.5703 103.077 16.6354 101.918 16.6875C100.76 16.7396 99.5877 16.7656 98.4028 16.7656C98.2466 16.7656 97.9992 16.7656 97.6606 16.7656C97.3221 16.7526 96.9575 16.7396 96.5669 16.7266C96.1893 16.7135 95.8312 16.694 95.4927 16.668C95.1541 16.6289 94.9067 16.5768 94.7505 16.5117C93.7479 16.1471 92.9992 15.6589 92.5044 15.0469C92.0226 14.4219 91.7817 13.5625 91.7817 12.4688V12.1562C91.8078 11.6745 91.8468 11.2448 91.8989 10.8672C91.951 10.4896 92.0422 10.1445 92.1724 9.83203C92.3156 9.51953 92.5044 9.23307 92.7388 8.97266C92.9862 8.69922 93.3182 8.42578 93.7349 8.15234C94.0213 7.95703 94.3599 7.79427 94.7505 7.66406C95.1411 7.53385 95.5448 7.42318 95.9614 7.33203C96.3911 7.24089 96.8078 7.17578 97.2114 7.13672C97.6281 7.09766 98.0057 7.07812 98.3442 7.07812C98.9692 7.07812 99.5877 7.1237 100.2 7.21484C100.825 7.30599 101.443 7.44271 102.055 7.625C101.99 6.76562 101.931 5.91927 101.879 5.08594C101.84 4.23958 101.775 3.39323 101.684 2.54688C102.387 2.48177 103.084 2.41016 103.774 2.33203C104.464 2.25391 105.154 2.17578 105.844 2.09766C105.857 2.77474 105.864 3.45182 105.864 4.12891C105.877 4.79297 105.883 5.46354 105.883 6.14062ZM102.895 12.0391C102.895 11.7396 102.895 11.4401 102.895 11.1406C102.895 10.8411 102.889 10.5417 102.875 10.2422C102.055 10.2031 101.235 10.1836 100.415 10.1836C100.297 10.1836 100.05 10.1901 99.6724 10.2031C99.2948 10.2031 98.8911 10.2161 98.4614 10.2422C98.0448 10.2552 97.6541 10.2878 97.2896 10.3398C96.925 10.3789 96.6906 10.431 96.5864 10.4961C96.3911 10.6393 96.2674 10.8411 96.2153 11.1016C96.1763 11.362 96.1567 11.6029 96.1567 11.8242C96.1567 11.9284 96.1632 12.0716 96.1763 12.2539C96.1893 12.4232 96.2088 12.6055 96.2349 12.8008C96.2739 12.9831 96.3195 13.1589 96.3716 13.3281C96.4237 13.4844 96.4823 13.6016 96.5474 13.6797C96.5864 13.7188 96.6515 13.7513 96.7427 13.7773C96.8468 13.8034 96.9575 13.8229 97.0747 13.8359C97.1919 13.849 97.3026 13.8555 97.4067 13.8555C97.5239 13.8555 97.6151 13.8555 97.6802 13.8555C98.4224 13.8555 99.158 13.8229 99.8872 13.7578C100.616 13.6927 101.352 13.6081 102.094 13.5039C102.198 13.4779 102.322 13.4648 102.465 13.4648C102.609 13.4518 102.739 13.4258 102.856 13.3867V13.3477C102.856 13.3346 102.862 13.3216 102.875 13.3086C102.902 13.1003 102.908 12.8919 102.895 12.6836C102.895 12.4753 102.895 12.2604 102.895 12.0391ZM111.313 3.93359C111.313 4.19401 111.254 4.44141 111.137 4.67578C111.033 4.89714 110.883 5.09245 110.688 5.26172C110.506 5.43099 110.297 5.56771 110.063 5.67188C109.829 5.76302 109.594 5.80859 109.36 5.80859C109.099 5.80859 108.852 5.75 108.618 5.63281C108.396 5.51562 108.201 5.36589 108.032 5.18359C107.862 5.0013 107.732 4.79297 107.641 4.55859C107.55 4.3112 107.504 4.0638 107.504 3.81641C107.504 3.56901 107.55 3.34115 107.641 3.13281C107.745 2.91146 107.875 2.72266 108.032 2.56641C108.201 2.41016 108.39 2.28646 108.598 2.19531C108.819 2.10417 109.054 2.05859 109.301 2.05859C109.549 2.05859 109.79 2.11068 110.024 2.21484C110.271 2.30599 110.486 2.44271 110.668 2.625C110.864 2.79427 111.02 2.99609 111.137 3.23047C111.254 3.45182 111.313 3.6862 111.313 3.93359ZM112.114 7.25391C112.049 7.94401 111.997 8.6276 111.958 9.30469C111.918 9.98177 111.879 10.6589 111.84 11.3359C111.788 12.1302 111.697 12.918 111.567 13.6992C111.45 14.4805 111.313 15.2617 111.157 16.043L108.168 16.3555C108.168 15.9388 108.168 15.5286 108.168 15.125C108.181 14.7214 108.188 14.3112 108.188 13.8945C108.188 12.8268 108.168 11.7591 108.129 10.6914C108.09 9.6237 108.051 8.55599 108.012 7.48828C108.702 7.46224 109.379 7.42318 110.043 7.37109C110.721 7.31901 111.411 7.27995 112.114 7.25391ZM127.719 6.14062C127.719 6.6875 127.719 7.22786 127.719 7.76172C127.719 8.29557 127.706 8.83594 127.68 9.38281C127.654 10.5807 127.602 11.7721 127.524 12.957C127.446 14.1289 127.361 15.3073 127.27 16.4922C126.085 16.5703 124.913 16.6354 123.754 16.6875C122.596 16.7396 121.424 16.7656 120.239 16.7656C120.083 16.7656 119.835 16.7656 119.497 16.7656C119.158 16.7526 118.793 16.7396 118.403 16.7266C118.025 16.7135 117.667 16.694 117.329 16.668C116.99 16.6289 116.743 16.5768 116.586 16.5117C115.584 16.1471 114.835 15.6589 114.34 15.0469C113.859 14.4219 113.618 13.5625 113.618 12.4688V12.1562C113.644 11.6745 113.683 11.2448 113.735 10.8672C113.787 10.4896 113.878 10.1445 114.008 9.83203C114.152 9.51953 114.34 9.23307 114.575 8.97266C114.822 8.69922 115.154 8.42578 115.571 8.15234C115.857 7.95703 116.196 7.79427 116.586 7.66406C116.977 7.53385 117.381 7.42318 117.797 7.33203C118.227 7.24089 118.644 7.17578 119.047 7.13672C119.464 7.09766 119.842 7.07812 120.18 7.07812C120.805 7.07812 121.424 7.1237 122.036 7.21484C122.661 7.30599 123.279 7.44271 123.891 7.625C123.826 6.76562 123.767 5.91927 123.715 5.08594C123.676 4.23958 123.611 3.39323 123.52 2.54688C124.223 2.48177 124.92 2.41016 125.61 2.33203C126.3 2.25391 126.99 2.17578 127.68 2.09766C127.693 2.77474 127.7 3.45182 127.7 4.12891C127.713 4.79297 127.719 5.46354 127.719 6.14062ZM124.731 12.0391C124.731 11.7396 124.731 11.4401 124.731 11.1406C124.731 10.8411 124.724 10.5417 124.711 10.2422C123.891 10.2031 123.071 10.1836 122.25 10.1836C122.133 10.1836 121.886 10.1901 121.508 10.2031C121.131 10.2031 120.727 10.2161 120.297 10.2422C119.881 10.2552 119.49 10.2878 119.125 10.3398C118.761 10.3789 118.527 10.431 118.422 10.4961C118.227 10.6393 118.103 10.8411 118.051 11.1016C118.012 11.362 117.993 11.6029 117.993 11.8242C117.993 11.9284 117.999 12.0716 118.012 12.2539C118.025 12.4232 118.045 12.6055 118.071 12.8008C118.11 12.9831 118.155 13.1589 118.208 13.3281C118.26 13.4844 118.318 13.6016 118.383 13.6797C118.422 13.7188 118.487 13.7513 118.579 13.7773C118.683 13.8034 118.793 13.8229 118.911 13.8359C119.028 13.849 119.139 13.8555 119.243 13.8555C119.36 13.8555 119.451 13.8555 119.516 13.8555C120.258 13.8555 120.994 13.8229 121.723 13.7578C122.452 13.6927 123.188 13.6081 123.93 13.5039C124.034 13.4779 124.158 13.4648 124.301 13.4648C124.444 13.4518 124.575 13.4258 124.692 13.3867V13.3477C124.692 13.3346 124.698 13.3216 124.711 13.3086C124.737 13.1003 124.744 12.8919 124.731 12.6836C124.731 12.4753 124.731 12.2604 124.731 12.0391ZM144.145 9.26562C144.145 9.36979 144.145 9.47396 144.145 9.57812C144.145 9.66927 144.139 9.76693 144.125 9.87109C144.112 10.0534 144.08 10.3529 144.028 10.7695C143.976 11.1862 143.904 11.6224 143.813 12.0781C143.722 12.5208 143.611 12.931 143.481 13.3086C143.351 13.6862 143.208 13.9271 143.051 14.0312C142.973 14.0833 142.706 14.1289 142.25 14.168C141.808 14.207 141.261 14.2461 140.61 14.2852C139.972 14.3242 139.275 14.3568 138.52 14.3828C137.765 14.4089 137.042 14.4349 136.352 14.4609C135.675 14.474 135.076 14.487 134.555 14.5C134.047 14.513 133.709 14.5195 133.54 14.5195C133.461 14.5195 133.325 14.5195 133.129 14.5195C132.947 14.5195 132.752 14.5195 132.543 14.5195C132.335 14.5065 132.14 14.4935 131.958 14.4805C131.775 14.4674 131.645 14.4479 131.567 14.4219C131.385 14.3568 131.202 14.2526 131.02 14.1094C130.838 13.9531 130.668 13.7839 130.512 13.6016C130.356 13.4062 130.213 13.2109 130.083 13.0156C129.965 12.8073 129.881 12.612 129.829 12.4297C129.79 12.2865 129.757 12.0716 129.731 11.7852C129.705 11.4857 129.685 11.1797 129.672 10.8672C129.659 10.5417 129.646 10.2292 129.633 9.92969C129.633 9.63021 129.633 9.40234 129.633 9.24609C129.633 8.9987 129.64 8.66016 129.653 8.23047C129.666 7.78776 129.705 7.33854 129.77 6.88281C129.835 6.42708 129.926 6.00391 130.043 5.61328C130.174 5.20964 130.356 4.92969 130.59 4.77344C130.694 4.70833 130.89 4.64974 131.176 4.59766C131.463 4.54557 131.801 4.5 132.192 4.46094C132.583 4.42188 132.999 4.39583 133.442 4.38281C133.885 4.35677 134.314 4.34375 134.731 4.34375C135.161 4.33073 135.558 4.32422 135.922 4.32422C136.287 4.32422 136.58 4.33073 136.801 4.34375C136.997 4.35677 137.277 4.36979 137.641 4.38281C138.006 4.38281 138.409 4.38932 138.852 4.40234C139.308 4.41536 139.777 4.44141 140.258 4.48047C140.74 4.50651 141.189 4.54557 141.606 4.59766C142.023 4.64974 142.387 4.72135 142.7 4.8125C143.025 4.89062 143.24 4.98828 143.344 5.10547C143.514 5.28776 143.65 5.5612 143.754 5.92578C143.859 6.29036 143.937 6.68099 143.989 7.09766C144.054 7.5013 144.093 7.90495 144.106 8.30859C144.132 8.69922 144.145 9.01823 144.145 9.26562ZM140.004 9.67578C140.004 9.51953 139.998 9.33724 139.985 9.12891C139.972 8.92057 139.952 8.71224 139.926 8.50391C139.9 8.28255 139.861 8.07422 139.809 7.87891C139.757 7.67057 139.692 7.5013 139.614 7.37109C139.51 7.20182 139.308 7.07161 139.008 6.98047C138.709 6.88932 138.377 6.82422 138.012 6.78516C137.661 6.73307 137.309 6.70052 136.958 6.6875C136.619 6.67448 136.365 6.66797 136.196 6.66797C136.105 6.66797 135.942 6.67448 135.708 6.6875C135.473 6.6875 135.226 6.69401 134.965 6.70703C134.718 6.72005 134.484 6.74609 134.262 6.78516C134.041 6.8112 133.898 6.84375 133.833 6.88281C133.715 6.96094 133.624 7.08464 133.559 7.25391C133.494 7.41016 133.442 7.58594 133.403 7.78125C133.377 7.97656 133.357 8.17188 133.344 8.36719C133.344 8.54948 133.344 8.69922 133.344 8.81641C133.344 8.93359 133.351 9.14844 133.364 9.46094C133.39 9.76042 133.416 10.0859 133.442 10.4375C133.481 10.776 133.527 11.0885 133.579 11.375C133.631 11.6615 133.696 11.8438 133.774 11.9219C133.865 12.026 134.034 12.1107 134.282 12.1758C134.542 12.2409 134.816 12.2995 135.102 12.3516C135.402 12.3906 135.688 12.4232 135.961 12.4492C136.235 12.4622 136.43 12.4688 136.547 12.4688C136.756 12.4688 137.003 12.4622 137.29 12.4492C137.576 12.4362 137.862 12.4036 138.149 12.3516C138.448 12.2995 138.728 12.2279 138.989 12.1367C139.249 12.0456 139.458 11.9219 139.614 11.7656C139.705 11.6745 139.777 11.5378 139.829 11.3555C139.881 11.1732 139.92 10.9779 139.946 10.7695C139.972 10.5612 139.985 10.3594 139.985 10.1641C139.998 9.95573 140.004 9.79297 140.004 9.67578ZM156.997 3.44531L156.879 5.98438C156.476 5.95833 156.072 5.9388 155.668 5.92578C155.265 5.91276 154.861 5.90625 154.458 5.90625C154.288 5.90625 154.047 5.91276 153.735 5.92578C153.422 5.92578 153.071 5.93229 152.68 5.94531C152.303 5.95833 151.912 5.97786 151.508 6.00391C151.105 6.02995 150.734 6.05599 150.395 6.08203C150.056 6.10807 149.77 6.14062 149.536 6.17969C149.301 6.21875 149.158 6.25781 149.106 6.29688C148.937 6.46615 148.852 6.66146 148.852 6.88281C148.852 7.02604 148.891 7.14323 148.969 7.23438C148.995 7.27344 149.139 7.30599 149.399 7.33203C149.659 7.35807 149.978 7.38411 150.356 7.41016C150.734 7.42318 151.144 7.4362 151.586 7.44922C152.042 7.44922 152.472 7.45573 152.875 7.46875C153.292 7.46875 153.657 7.47526 153.969 7.48828C154.295 7.5013 154.523 7.51432 154.653 7.52734C155.148 7.59245 155.538 7.73568 155.825 7.95703C156.124 8.17839 156.352 8.45833 156.508 8.79688C156.665 9.1224 156.762 9.49349 156.801 9.91016C156.853 10.3268 156.879 10.75 156.879 11.1797C156.879 11.388 156.86 11.6354 156.821 11.9219C156.795 12.2083 156.749 12.4948 156.684 12.7812C156.619 13.0677 156.521 13.3346 156.391 13.582C156.274 13.8294 156.131 14.0247 155.961 14.168C155.766 14.3242 155.447 14.4544 155.004 14.5586C154.575 14.6628 154.106 14.7474 153.598 14.8125C153.103 14.8776 152.622 14.9232 152.153 14.9492C151.684 14.9753 151.326 14.9883 151.079 14.9883C150.219 14.9883 149.36 14.9427 148.5 14.8516C147.641 14.7474 146.788 14.6367 145.942 14.5195V10.7891C146.762 10.9583 147.583 11.056 148.403 11.082C149.236 11.1081 150.069 11.1536 150.903 11.2188C151.072 11.2318 151.326 11.2448 151.665 11.2578C152.016 11.2578 152.368 11.2513 152.719 11.2383C153.071 11.2122 153.39 11.1667 153.676 11.1016C153.963 11.0365 154.139 10.9453 154.204 10.8281C154.23 10.7891 154.243 10.7435 154.243 10.6914C154.243 10.6393 154.243 10.5938 154.243 10.5547C154.243 10.4505 154.23 10.3203 154.204 10.1641C154.191 9.99479 154.152 9.86458 154.086 9.77344C154.073 9.76042 154.028 9.75391 153.95 9.75391C153.872 9.74089 153.826 9.73438 153.813 9.73438C153.084 9.69531 152.355 9.67578 151.625 9.67578C150.896 9.66276 150.161 9.6237 149.418 9.55859C149.119 9.53255 148.813 9.50651 148.5 9.48047C148.201 9.44141 147.902 9.38932 147.602 9.32422C147.355 9.27214 147.127 9.21354 146.918 9.14844C146.723 9.08333 146.547 8.9987 146.391 8.89453C146.248 8.79036 146.124 8.66016 146.02 8.50391C145.916 8.33464 145.844 8.11328 145.805 7.83984C145.779 7.7487 145.766 7.66406 145.766 7.58594C145.766 7.49479 145.766 7.39714 145.766 7.29297C145.766 7.05859 145.779 6.79167 145.805 6.49219C145.831 6.19271 145.877 5.89323 145.942 5.59375C146.02 5.29427 146.111 5.01432 146.215 4.75391C146.333 4.48047 146.482 4.25911 146.665 4.08984C146.782 3.97266 146.99 3.875 147.29 3.79688C147.589 3.71875 147.934 3.65365 148.325 3.60156C148.715 3.53646 149.132 3.48438 149.575 3.44531C150.017 3.40625 150.441 3.38021 150.844 3.36719C151.261 3.34115 151.632 3.32812 151.958 3.32812C152.296 3.3151 152.55 3.30859 152.719 3.30859C153.448 3.30859 154.165 3.32161 154.868 3.34766C155.584 3.3737 156.293 3.40625 156.997 3.44531Z" fill="#43CA99"/>
<path d="M182.719 16.7852L180.727 18.2891L177.875 16.2578C177.628 16.401 177.381 16.5443 177.133 16.6875C176.886 16.8307 176.639 16.9674 176.391 17.0977C175.61 17.5143 174.829 17.8333 174.047 18.0547C173.279 18.2891 172.446 18.4062 171.547 18.4062C171.118 18.4062 170.681 18.3802 170.239 18.3281C169.809 18.276 169.379 18.1979 168.95 18.0938C168.689 18.0417 168.468 17.9766 168.286 17.8984C168.103 17.8333 167.934 17.7487 167.778 17.6445C167.635 17.5534 167.491 17.4362 167.348 17.293C167.218 17.1497 167.075 16.9805 166.918 16.7852C166.749 16.5638 166.645 16.3099 166.606 16.0234C166.567 15.737 166.547 15.4635 166.547 15.2031C166.547 14.8255 166.573 14.4479 166.625 14.0703C166.678 13.6797 166.756 13.3021 166.86 12.9375C166.925 12.6901 167.088 12.3776 167.348 12C167.609 11.6094 167.902 11.2188 168.227 10.8281C168.553 10.4245 168.865 10.0469 169.165 9.69531C169.477 9.34375 169.718 9.07682 169.887 8.89453C169.783 8.81641 169.62 8.6862 169.399 8.50391C169.178 8.32161 168.943 8.1263 168.696 7.91797C168.448 7.69661 168.221 7.48828 168.012 7.29297C167.804 7.08464 167.674 6.92839 167.622 6.82422C167.517 6.62891 167.465 6.38802 167.465 6.10156C167.465 5.88021 167.491 5.60026 167.543 5.26172C167.609 4.91016 167.693 4.55208 167.797 4.1875C167.902 3.82292 168.019 3.48438 168.149 3.17188C168.292 2.85938 168.448 2.63151 168.618 2.48828C168.8 2.31901 169.099 2.19531 169.516 2.11719C169.933 2.02604 170.375 1.96094 170.844 1.92188C171.326 1.88281 171.788 1.85677 172.231 1.84375C172.674 1.83073 173.025 1.81771 173.286 1.80469C173.39 1.79167 173.5 1.78516 173.618 1.78516C173.735 1.78516 173.852 1.78516 173.969 1.78516C174.295 1.78516 174.659 1.8112 175.063 1.86328C175.467 1.90234 175.87 1.98047 176.274 2.09766C176.678 2.20182 177.062 2.34505 177.426 2.52734C177.791 2.69661 178.09 2.91146 178.325 3.17188C178.39 3.23698 178.429 3.34766 178.442 3.50391C178.455 3.64714 178.461 3.75781 178.461 3.83594C178.461 4.16146 178.422 4.50651 178.344 4.87109C178.266 5.23568 178.175 5.57422 178.071 5.88672L174.418 6.08203C174.431 5.88672 174.438 5.69792 174.438 5.51562C174.451 5.32031 174.458 5.13151 174.458 4.94922C174.458 4.92318 174.451 4.84505 174.438 4.71484C174.438 4.57161 174.431 4.42188 174.418 4.26562C174.418 4.10938 174.405 3.96615 174.379 3.83594C174.366 3.70573 174.34 3.63411 174.301 3.62109C174.197 3.58203 174.093 3.5625 173.989 3.5625C173.898 3.54948 173.793 3.54297 173.676 3.54297C173.598 3.54297 173.468 3.54948 173.286 3.5625C173.103 3.5625 172.908 3.57552 172.7 3.60156C172.491 3.61458 172.296 3.63411 172.114 3.66016C171.944 3.6862 171.834 3.71224 171.782 3.73828C171.652 3.80339 171.573 3.93359 171.547 4.12891C171.521 4.32422 171.508 4.48047 171.508 4.59766C171.508 4.71484 171.515 4.83854 171.528 4.96875C171.541 5.08594 171.56 5.20312 171.586 5.32031C171.639 5.58073 171.762 5.88672 171.958 6.23828C172.166 6.58984 172.394 6.94141 172.641 7.29297C172.902 7.64453 173.162 7.97656 173.422 8.28906C173.696 8.60156 173.924 8.84896 174.106 9.03125C174.405 9.34375 174.737 9.65625 175.102 9.96875C175.467 10.2812 175.838 10.5872 176.215 10.8867C176.606 11.1862 176.997 11.4792 177.387 11.7656C177.778 12.0521 178.149 12.319 178.5 12.5664C178.696 12.4492 178.93 12.2995 179.204 12.1172C179.477 11.9219 179.685 11.7266 179.829 11.5312C179.92 11.4141 180.011 11.3034 180.102 11.1992C180.193 11.082 180.291 10.9714 180.395 10.8672L182.485 12.7422C182.185 13.1198 181.873 13.4648 181.547 13.7773C181.235 14.0768 180.89 14.3828 180.512 14.6953L182.719 16.7852ZM176.118 14.0508C175.375 13.4779 174.64 12.9049 173.911 12.332C173.194 11.7591 172.465 11.1797 171.723 10.5938C171.619 10.7109 171.476 10.8802 171.293 11.1016C171.111 11.3229 170.929 11.5573 170.747 11.8047C170.577 12.0391 170.428 12.2799 170.297 12.5273C170.167 12.7747 170.102 12.9831 170.102 13.1523C170.102 13.4648 170.219 13.7708 170.454 14.0703C170.701 14.3698 170.994 14.6432 171.333 14.8906C171.671 15.125 172.029 15.3203 172.407 15.4766C172.784 15.6198 173.11 15.6914 173.383 15.6914C173.448 15.6914 173.5 15.6914 173.54 15.6914C173.592 15.6784 173.65 15.6589 173.715 15.6328C173.859 15.5807 174.041 15.4896 174.262 15.3594C174.497 15.2161 174.731 15.0664 174.965 14.9102C175.2 14.7409 175.421 14.5846 175.629 14.4414C175.838 14.2852 176 14.1549 176.118 14.0508Z" fill="#B5B5B5"/>
<path d="M77.7388 36.9414L74.77 37.3906C74.5617 36.7266 74.3534 36.069 74.145 35.418C73.9367 34.7539 73.7349 34.0898 73.5396 33.4258L68.7349 33.6016L68.1294 36.1992H65.1216C65.3039 33.9857 65.4927 31.7852 65.688 29.5977C65.8833 27.4102 66.0721 25.2161 66.2544 23.0156C67.1919 22.8594 68.1229 22.7292 69.0474 22.625C69.9849 22.5208 70.9289 22.4688 71.8794 22.4688C73.0382 22.4688 74.1971 22.4883 75.356 22.5273C75.5643 23.8815 75.7661 25.2357 75.9614 26.5898C76.1698 27.931 76.3846 29.2786 76.606 30.6328C76.7622 31.7005 76.9315 32.7552 77.1138 33.7969C77.3091 34.8385 77.5174 35.8867 77.7388 36.9414ZM72.856 30.7695C72.8429 30.6523 72.8104 30.4375 72.7583 30.125C72.7062 29.7995 72.6476 29.4609 72.5825 29.1094C72.5174 28.7448 72.4393 28.4193 72.3481 28.1328C72.27 27.8333 72.1919 27.6576 72.1138 27.6055C72.0877 27.5924 72.0226 27.5794 71.9185 27.5664C71.8273 27.5534 71.7231 27.5404 71.606 27.5273C71.5018 27.5143 71.3976 27.5078 71.2935 27.5078C71.1893 27.5078 71.1177 27.5078 71.0786 27.5078C71.0135 27.5078 70.9224 27.5078 70.8052 27.5078C70.701 27.5078 70.5838 27.5143 70.4536 27.5273C70.3364 27.5273 70.2192 27.5404 70.1021 27.5664C69.9979 27.5924 69.9263 27.625 69.8872 27.6641C69.8612 27.6771 69.8286 27.7617 69.7896 27.918C69.7505 28.0742 69.6984 28.2695 69.6333 28.5039C69.5812 28.7253 69.5226 28.9661 69.4575 29.2266C69.4054 29.487 69.3534 29.7344 69.3013 29.9688C69.2492 30.2031 69.2036 30.4049 69.1646 30.5742C69.1385 30.7435 69.119 30.8411 69.106 30.8672L72.856 30.7695ZM91.938 26.707C91.938 27.306 91.8599 27.8854 91.7036 28.4453C91.6125 28.4583 91.339 28.4779 90.8833 28.5039C90.4406 28.5169 89.9067 28.543 89.2817 28.582C88.6698 28.6081 88.0057 28.6471 87.2896 28.6992C86.5864 28.7383 85.9289 28.7839 85.3169 28.8359C84.7179 28.888 84.2036 28.9466 83.7739 29.0117C83.3573 29.0638 83.1229 29.1159 83.0708 29.168C82.8625 29.3503 82.7062 29.5716 82.6021 29.832C82.4979 30.0924 82.4458 30.3529 82.4458 30.6133C82.4458 30.7695 82.4588 30.8932 82.4849 30.9844C82.5239 31.0625 82.5825 31.1536 82.6606 31.2578C82.6997 31.2969 82.8364 31.3294 83.0708 31.3555C83.3052 31.3815 83.5656 31.401 83.8521 31.4141C84.1385 31.4271 84.4054 31.4401 84.6528 31.4531C84.9002 31.4531 85.0435 31.4531 85.0825 31.4531C86.02 31.4531 86.9575 31.4336 87.895 31.3945C88.8325 31.3555 89.77 31.3034 90.7075 31.2383L90.8638 34.5977C89.5617 34.7018 88.2531 34.806 86.938 34.9102C85.6359 35.0013 84.3273 35.0469 83.0122 35.0469C82.9471 35.0469 82.8494 35.0469 82.7192 35.0469C82.6021 35.0469 82.4718 35.0469 82.3286 35.0469C82.1854 35.0339 82.0487 35.0208 81.9185 35.0078C81.7882 34.9948 81.6971 34.9818 81.645 34.9688C81.3716 34.8906 81.0981 34.806 80.8247 34.7148C80.5643 34.6107 80.3169 34.487 80.0825 34.3438C79.8481 34.1875 79.6398 34.0052 79.4575 33.7969C79.2882 33.5885 79.1646 33.3346 79.0864 33.0352C79.0343 32.8398 78.9888 32.5859 78.9497 32.2734C78.9237 31.9479 78.9041 31.6159 78.8911 31.2773C78.8781 30.9388 78.8651 30.6068 78.8521 30.2812C78.8521 29.9557 78.8521 29.6823 78.8521 29.4609C78.8521 28.9531 78.8586 28.4779 78.8716 28.0352C78.8846 27.5924 78.9562 27.1888 79.0864 26.8242C79.2166 26.4466 79.425 26.1146 79.7114 25.8281C80.0109 25.5286 80.4341 25.2682 80.981 25.0469C81.2284 24.9427 81.5994 24.8646 82.0942 24.8125C82.589 24.7474 83.1034 24.7018 83.6372 24.6758C84.1841 24.6367 84.7049 24.6107 85.1997 24.5977C85.6945 24.5846 86.0786 24.5781 86.3521 24.5781C87.2635 24.5781 88.1685 24.5977 89.0669 24.6367C89.9784 24.6758 90.8898 24.7279 91.8013 24.793C91.8403 25.1185 91.8729 25.444 91.8989 25.7695C91.925 26.082 91.938 26.3945 91.938 26.707ZM106.567 29.3828C106.567 29.8646 106.534 30.3529 106.469 30.8477C106.417 31.3294 106.359 31.8112 106.293 32.293C106.189 33.1393 106.072 33.9792 105.942 34.8125C105.812 35.6328 105.681 36.4661 105.551 37.3125C104.913 37.3255 104.288 37.3516 103.676 37.3906C103.064 37.4297 102.446 37.4753 101.821 37.5273C101.821 36.5768 101.821 35.6393 101.821 34.7148C101.821 33.7773 101.801 32.8398 101.762 31.9023C101.762 31.7201 101.756 31.4857 101.743 31.1992C101.743 30.9128 101.717 30.6784 101.665 30.4961C101.586 30.1966 101.489 29.9948 101.372 29.8906C101.254 29.7734 101.027 29.7148 100.688 29.7148C100.454 29.7148 100.18 29.7409 99.8677 29.793C99.5552 29.8451 99.2362 29.9102 98.9106 29.9883C98.5851 30.0664 98.2726 30.1576 97.9731 30.2617C97.6867 30.3529 97.4458 30.4505 97.2505 30.5547C97.1463 31.6094 97.0161 32.6576 96.8599 33.6992C96.7166 34.7409 96.6255 35.7956 96.5864 36.8633L93.8325 36.7266C93.6893 34.3828 93.5526 32.0521 93.4224 29.7344C93.2922 27.4036 93.1685 25.0664 93.0513 22.7227L97.3481 22.4492C97.3221 23.3086 97.2961 24.168 97.27 25.0273C97.244 25.8737 97.2179 26.7266 97.1919 27.5859C97.4393 27.3776 97.7192 27.2214 98.0317 27.1172C98.3442 27 98.6632 26.9219 98.9888 26.8828C99.3273 26.8438 99.6659 26.8242 100.004 26.8242C100.343 26.8242 100.668 26.8242 100.981 26.8242C101.45 26.8242 101.977 26.8438 102.563 26.8828C103.162 26.9089 103.728 27 104.262 27.1562C104.809 27.2995 105.291 27.5339 105.708 27.8594C106.124 28.1849 106.404 28.6406 106.547 29.2266C106.56 29.2526 106.567 29.2786 106.567 29.3047C106.567 29.3307 106.567 29.3568 106.567 29.3828ZM122.114 28.1914C122.114 29.2852 122.075 30.3724 121.997 31.4531C121.918 32.5339 121.84 33.6146 121.762 34.6953C120.304 34.8255 118.852 34.9362 117.407 35.0273C115.961 35.1185 114.51 35.1641 113.051 35.1641C112.921 35.1641 112.68 35.1641 112.329 35.1641C111.977 35.151 111.606 35.138 111.215 35.125C110.825 35.099 110.454 35.0729 110.102 35.0469C109.75 35.0078 109.516 34.9557 109.399 34.8906C108.969 34.6562 108.67 34.3633 108.5 34.0117C108.331 33.6471 108.247 33.237 108.247 32.7812C108.247 32.625 108.253 32.4167 108.266 32.1562C108.279 31.8958 108.305 31.6224 108.344 31.3359C108.383 31.0495 108.435 30.7826 108.5 30.5352C108.566 30.2878 108.644 30.1055 108.735 29.9883C108.852 29.832 109.119 29.7018 109.536 29.5977C109.952 29.4805 110.447 29.3893 111.02 29.3242C111.606 29.2591 112.231 29.207 112.895 29.168C113.572 29.1289 114.217 29.1029 114.829 29.0898C115.441 29.0638 115.987 29.0508 116.469 29.0508C116.951 29.0508 117.296 29.0508 117.504 29.0508C117.543 28.7643 117.563 28.4844 117.563 28.2109C117.563 28.1849 117.563 28.1198 117.563 28.0156C117.563 27.8984 117.556 27.8268 117.543 27.8008C117.504 27.7227 117.381 27.6576 117.172 27.6055C116.964 27.5534 116.704 27.5143 116.391 27.4883C116.092 27.4622 115.76 27.4427 115.395 27.4297C115.043 27.4036 114.698 27.3906 114.36 27.3906C114.021 27.3906 113.722 27.3906 113.461 27.3906C113.201 27.3906 113.012 27.3906 112.895 27.3906C112.075 27.3906 111.254 27.4102 110.434 27.4492C109.614 27.4753 108.793 27.5013 107.973 27.5273C108.025 27.0326 108.064 26.5312 108.09 26.0234C108.129 25.5156 108.136 25.0143 108.11 24.5195C109.06 24.3503 110.011 24.2331 110.961 24.168C111.925 24.0898 112.895 24.0508 113.872 24.0508C114.223 24.0508 114.607 24.0573 115.024 24.0703C115.441 24.0703 115.857 24.0833 116.274 24.1094C116.691 24.1224 117.101 24.1484 117.504 24.1875C117.921 24.2266 118.305 24.2786 118.657 24.3438C119.021 24.4089 119.379 24.526 119.731 24.6953C120.096 24.8646 120.434 25.0729 120.747 25.3203C121.059 25.5677 121.333 25.8542 121.567 26.1797C121.801 26.4922 121.971 26.8307 122.075 27.1953C122.088 27.2344 122.094 27.2995 122.094 27.3906C122.107 27.4818 122.114 27.5859 122.114 27.7031C122.114 27.8073 122.114 27.9049 122.114 27.9961C122.114 28.0872 122.114 28.1523 122.114 28.1914ZM117.758 32.7812V30.2812C117.381 30.2682 117.003 30.2617 116.625 30.2617C116.248 30.2487 115.87 30.2422 115.493 30.2422C115.415 30.2422 115.193 30.2487 114.829 30.2617C114.477 30.2617 114.093 30.2747 113.676 30.3008C113.273 30.3268 112.902 30.3594 112.563 30.3984C112.224 30.4375 112.029 30.4961 111.977 30.5742C111.912 30.6784 111.866 30.7891 111.84 30.9062C111.827 31.0104 111.821 31.1211 111.821 31.2383C111.821 31.3294 111.827 31.4531 111.84 31.6094C111.853 31.7656 111.873 31.9284 111.899 32.0977C111.938 32.2669 111.977 32.4232 112.016 32.5664C112.055 32.7096 112.107 32.8138 112.172 32.8789C112.224 32.944 112.309 32.9961 112.426 33.0352C112.556 33.0612 112.693 33.0872 112.836 33.1133C112.98 33.1263 113.123 33.1393 113.266 33.1523C113.409 33.1523 113.52 33.1523 113.598 33.1523C113.911 33.1523 114.243 33.1393 114.594 33.1133C114.959 33.0872 115.323 33.0612 115.688 33.0352C116.066 32.9961 116.43 32.957 116.782 32.918C117.133 32.8659 117.459 32.8203 117.758 32.7812ZM137.602 26.1406C137.602 26.6875 137.602 27.2279 137.602 27.7617C137.602 28.2956 137.589 28.8359 137.563 29.3828C137.537 30.5807 137.485 31.7721 137.407 32.957C137.329 34.1289 137.244 35.3073 137.153 36.4922C135.968 36.5703 134.796 36.6354 133.637 36.6875C132.478 36.7396 131.306 36.7656 130.122 36.7656C129.965 36.7656 129.718 36.7656 129.379 36.7656C129.041 36.7526 128.676 36.7396 128.286 36.7266C127.908 36.7135 127.55 36.694 127.211 36.668C126.873 36.6289 126.625 36.5768 126.469 36.5117C125.467 36.1471 124.718 35.6589 124.223 35.0469C123.741 34.4219 123.5 33.5625 123.5 32.4688V32.1562C123.527 31.6745 123.566 31.2448 123.618 30.8672C123.67 30.4896 123.761 30.1445 123.891 29.832C124.034 29.5195 124.223 29.2331 124.458 28.9727C124.705 28.6992 125.037 28.4258 125.454 28.1523C125.74 27.957 126.079 27.7943 126.469 27.6641C126.86 27.5339 127.264 27.4232 127.68 27.332C128.11 27.2409 128.527 27.1758 128.93 27.1367C129.347 27.0977 129.724 27.0781 130.063 27.0781C130.688 27.0781 131.306 27.1237 131.918 27.2148C132.543 27.306 133.162 27.4427 133.774 27.625C133.709 26.7656 133.65 25.9193 133.598 25.0859C133.559 24.2396 133.494 23.3932 133.403 22.5469C134.106 22.4818 134.803 22.4102 135.493 22.332C136.183 22.2539 136.873 22.1758 137.563 22.0977C137.576 22.7747 137.583 23.4518 137.583 24.1289C137.596 24.793 137.602 25.4635 137.602 26.1406ZM134.614 32.0391C134.614 31.7396 134.614 31.4401 134.614 31.1406C134.614 30.8411 134.607 30.5417 134.594 30.2422C133.774 30.2031 132.954 30.1836 132.133 30.1836C132.016 30.1836 131.769 30.1901 131.391 30.2031C131.014 30.2031 130.61 30.2161 130.18 30.2422C129.764 30.2552 129.373 30.2878 129.008 30.3398C128.644 30.3789 128.409 30.431 128.305 30.4961C128.11 30.6393 127.986 30.8411 127.934 31.1016C127.895 31.362 127.875 31.6029 127.875 31.8242C127.875 31.9284 127.882 32.0716 127.895 32.2539C127.908 32.4232 127.928 32.6055 127.954 32.8008C127.993 32.9831 128.038 33.1589 128.09 33.3281C128.142 33.4844 128.201 33.6016 128.266 33.6797C128.305 33.7188 128.37 33.7513 128.461 33.7773C128.566 33.8034 128.676 33.8229 128.793 33.8359C128.911 33.849 129.021 33.8555 129.125 33.8555C129.243 33.8555 129.334 33.8555 129.399 33.8555C130.141 33.8555 130.877 33.8229 131.606 33.7578C132.335 33.6927 133.071 33.6081 133.813 33.5039C133.917 33.4779 134.041 33.4648 134.184 33.4648C134.327 33.4518 134.458 33.4258 134.575 33.3867V33.3477C134.575 33.3346 134.581 33.3216 134.594 33.3086C134.62 33.1003 134.627 32.8919 134.614 32.6836C134.614 32.4753 134.614 32.2604 134.614 32.0391ZM154.028 29.2656C154.028 29.3698 154.028 29.474 154.028 29.5781C154.028 29.6693 154.021 29.7669 154.008 29.8711C153.995 30.0534 153.963 30.3529 153.911 30.7695C153.859 31.1862 153.787 31.6224 153.696 32.0781C153.605 32.5208 153.494 32.931 153.364 33.3086C153.234 33.6862 153.09 33.9271 152.934 34.0312C152.856 34.0833 152.589 34.1289 152.133 34.168C151.691 34.207 151.144 34.2461 150.493 34.2852C149.855 34.3242 149.158 34.3568 148.403 34.3828C147.648 34.4089 146.925 34.4349 146.235 34.4609C145.558 34.474 144.959 34.487 144.438 34.5C143.93 34.513 143.592 34.5195 143.422 34.5195C143.344 34.5195 143.208 34.5195 143.012 34.5195C142.83 34.5195 142.635 34.5195 142.426 34.5195C142.218 34.5065 142.023 34.4935 141.84 34.4805C141.658 34.4674 141.528 34.4479 141.45 34.4219C141.267 34.3568 141.085 34.2526 140.903 34.1094C140.721 33.9531 140.551 33.7839 140.395 33.6016C140.239 33.4062 140.096 33.2109 139.965 33.0156C139.848 32.8073 139.764 32.612 139.711 32.4297C139.672 32.2865 139.64 32.0716 139.614 31.7852C139.588 31.4857 139.568 31.1797 139.555 30.8672C139.542 30.5417 139.529 30.2292 139.516 29.9297C139.516 29.6302 139.516 29.4023 139.516 29.2461C139.516 28.9987 139.523 28.6602 139.536 28.2305C139.549 27.7878 139.588 27.3385 139.653 26.8828C139.718 26.4271 139.809 26.0039 139.926 25.6133C140.056 25.2096 140.239 24.9297 140.473 24.7734C140.577 24.7083 140.773 24.6497 141.059 24.5977C141.346 24.5456 141.684 24.5 142.075 24.4609C142.465 24.4219 142.882 24.3958 143.325 24.3828C143.767 24.3568 144.197 24.3438 144.614 24.3438C145.043 24.3307 145.441 24.3242 145.805 24.3242C146.17 24.3242 146.463 24.3307 146.684 24.3438C146.879 24.3568 147.159 24.3698 147.524 24.3828C147.889 24.3828 148.292 24.3893 148.735 24.4023C149.191 24.4154 149.659 24.4414 150.141 24.4805C150.623 24.5065 151.072 24.5456 151.489 24.5977C151.905 24.6497 152.27 24.7214 152.583 24.8125C152.908 24.8906 153.123 24.9883 153.227 25.1055C153.396 25.2878 153.533 25.5612 153.637 25.9258C153.741 26.2904 153.819 26.681 153.872 27.0977C153.937 27.5013 153.976 27.9049 153.989 28.3086C154.015 28.6992 154.028 29.0182 154.028 29.2656ZM149.887 29.6758C149.887 29.5195 149.881 29.3372 149.868 29.1289C149.855 28.9206 149.835 28.7122 149.809 28.5039C149.783 28.2826 149.744 28.0742 149.692 27.8789C149.64 27.6706 149.575 27.5013 149.497 27.3711C149.392 27.2018 149.191 27.0716 148.891 26.9805C148.592 26.8893 148.26 26.8242 147.895 26.7852C147.543 26.7331 147.192 26.7005 146.84 26.6875C146.502 26.6745 146.248 26.668 146.079 26.668C145.987 26.668 145.825 26.6745 145.59 26.6875C145.356 26.6875 145.109 26.694 144.848 26.707C144.601 26.7201 144.366 26.7461 144.145 26.7852C143.924 26.8112 143.78 26.8438 143.715 26.8828C143.598 26.9609 143.507 27.0846 143.442 27.2539C143.377 27.4102 143.325 27.5859 143.286 27.7812C143.26 27.9766 143.24 28.1719 143.227 28.3672C143.227 28.5495 143.227 28.6992 143.227 28.8164C143.227 28.9336 143.234 29.1484 143.247 29.4609C143.273 29.7604 143.299 30.0859 143.325 30.4375C143.364 30.776 143.409 31.0885 143.461 31.375C143.514 31.6615 143.579 31.8438 143.657 31.9219C143.748 32.026 143.917 32.1107 144.165 32.1758C144.425 32.2409 144.698 32.2995 144.985 32.3516C145.284 32.3906 145.571 32.4232 145.844 32.4492C146.118 32.4622 146.313 32.4688 146.43 32.4688C146.639 32.4688 146.886 32.4622 147.172 32.4492C147.459 32.4362 147.745 32.4036 148.032 32.3516C148.331 32.2995 148.611 32.2279 148.872 32.1367C149.132 32.0456 149.34 31.9219 149.497 31.7656C149.588 31.6745 149.659 31.5378 149.711 31.3555C149.764 31.1732 149.803 30.9779 149.829 30.7695C149.855 30.5612 149.868 30.3594 149.868 30.1641C149.881 29.9557 149.887 29.793 149.887 29.6758ZM166.879 23.4453L166.762 25.9844C166.359 25.9583 165.955 25.9388 165.551 25.9258C165.148 25.9128 164.744 25.9062 164.34 25.9062C164.171 25.9062 163.93 25.9128 163.618 25.9258C163.305 25.9258 162.954 25.9323 162.563 25.9453C162.185 25.9583 161.795 25.9779 161.391 26.0039C160.987 26.0299 160.616 26.056 160.278 26.082C159.939 26.1081 159.653 26.1406 159.418 26.1797C159.184 26.2188 159.041 26.2578 158.989 26.2969C158.819 26.4661 158.735 26.6615 158.735 26.8828C158.735 27.026 158.774 27.1432 158.852 27.2344C158.878 27.2734 159.021 27.306 159.282 27.332C159.542 27.3581 159.861 27.3841 160.239 27.4102C160.616 27.4232 161.027 27.4362 161.469 27.4492C161.925 27.4492 162.355 27.4557 162.758 27.4688C163.175 27.4688 163.54 27.4753 163.852 27.4883C164.178 27.5013 164.405 27.5143 164.536 27.5273C165.03 27.5924 165.421 27.7357 165.708 27.957C166.007 28.1784 166.235 28.4583 166.391 28.7969C166.547 29.1224 166.645 29.4935 166.684 29.9102C166.736 30.3268 166.762 30.75 166.762 31.1797C166.762 31.388 166.743 31.6354 166.704 31.9219C166.678 32.2083 166.632 32.4948 166.567 32.7812C166.502 33.0677 166.404 33.3346 166.274 33.582C166.157 33.8294 166.014 34.0247 165.844 34.168C165.649 34.3242 165.33 34.4544 164.887 34.5586C164.458 34.6628 163.989 34.7474 163.481 34.8125C162.986 34.8776 162.504 34.9232 162.036 34.9492C161.567 34.9753 161.209 34.9883 160.961 34.9883C160.102 34.9883 159.243 34.9427 158.383 34.8516C157.524 34.7474 156.671 34.6367 155.825 34.5195V30.7891C156.645 30.9583 157.465 31.056 158.286 31.082C159.119 31.1081 159.952 31.1536 160.786 31.2188C160.955 31.2318 161.209 31.2448 161.547 31.2578C161.899 31.2578 162.25 31.2513 162.602 31.2383C162.954 31.2122 163.273 31.1667 163.559 31.1016C163.846 31.0365 164.021 30.9453 164.086 30.8281C164.112 30.7891 164.125 30.7435 164.125 30.6914C164.125 30.6393 164.125 30.5938 164.125 30.5547C164.125 30.4505 164.112 30.3203 164.086 30.1641C164.073 29.9948 164.034 29.8646 163.969 29.7734C163.956 29.7604 163.911 29.7539 163.833 29.7539C163.754 29.7409 163.709 29.7344 163.696 29.7344C162.967 29.6953 162.237 29.6758 161.508 29.6758C160.779 29.6628 160.043 29.6237 159.301 29.5586C159.002 29.5326 158.696 29.5065 158.383 29.4805C158.084 29.4414 157.784 29.3893 157.485 29.3242C157.237 29.2721 157.01 29.2135 156.801 29.1484C156.606 29.0833 156.43 28.9987 156.274 28.8945C156.131 28.7904 156.007 28.6602 155.903 28.5039C155.799 28.3346 155.727 28.1133 155.688 27.8398C155.662 27.7487 155.649 27.6641 155.649 27.5859C155.649 27.4948 155.649 27.3971 155.649 27.293C155.649 27.0586 155.662 26.7917 155.688 26.4922C155.714 26.1927 155.76 25.8932 155.825 25.5938C155.903 25.2943 155.994 25.0143 156.098 24.7539C156.215 24.4805 156.365 24.2591 156.547 24.0898C156.665 23.9727 156.873 23.875 157.172 23.7969C157.472 23.7188 157.817 23.6536 158.208 23.6016C158.598 23.5365 159.015 23.4844 159.458 23.4453C159.9 23.4062 160.323 23.3802 160.727 23.3672C161.144 23.3411 161.515 23.3281 161.84 23.3281C162.179 23.3151 162.433 23.3086 162.602 23.3086C163.331 23.3086 164.047 23.3216 164.75 23.3477C165.467 23.3737 166.176 23.4062 166.879 23.4453Z" fill="#4F36B6"/>
<path fill-rule="evenodd" clip-rule="evenodd" d="M38.7094 43.8874C44.6892 48.9866 53.6704 48.2728 58.7696 42.2931C63.8689 36.3134 63.1551 27.3322 57.1754 22.233C51.1957 17.1337 42.2144 17.8475 37.1152 23.8272C32.016 29.8069 32.7297 38.7882 38.7094 43.8874ZM40.7999 41.436C45.4257 45.3806 52.3735 44.8285 56.3182 40.2027C60.2629 35.5768 59.7107 28.6291 55.0849 24.6844C50.4591 20.7397 43.5113 21.2919 39.5666 25.9177C35.622 30.5435 36.1741 37.4913 40.7999 41.436Z" fill="#4F36B6"/>
<path d="M35.1996 42.8864C35.5305 42.3268 36.0068 41.8673 36.5779 41.5566V41.5566C39.3697 40.0381 42.6158 42.6186 41.7661 45.6809L41.7281 45.8178C41.5308 46.5287 41.1233 47.1634 40.559 47.6386L30.0361 56.5V56.5C28.9921 57.602 27.2211 56.2807 28.0361 55V55L35.1996 42.8864Z" fill="#4F36B6"/>
<path fill-rule="evenodd" clip-rule="evenodd" d="M43.4272 42.0789C47.1723 44.2726 52.0638 43.5365 54.9783 40.1187L54.9783 40.1187L53.4057 38.7776L53.4057 38.7776C51.2347 41.3234 47.6459 41.9459 44.7961 40.4736L43.4272 42.0789Z" fill="#4F36B6"/>
<rect x="22.5239" y="26.4402" width="3.57292" height="11.3142" rx="1.78646" transform="rotate(-74.3374 22.5239 26.4402)" fill="#BAB5CE"/>
<rect x="28.5239" y="14.612" width="3.57292" height="11.3142" rx="1.78646" transform="rotate(-46.9745 28.5239 14.612)" fill="#BAB5CE"/>
<rect x="39.5239" y="7.91761" width="3.57292" height="11.3142" rx="1.78646" transform="rotate(-14.8819 39.5239 7.91761)" fill="#BAB5CE"/>
</svg>
